<?xml version="1.0" encoding="UTF-8" standalone="no"?>
<!DOCTYPE svg PUBLIC "-//W3C//DTD SVG 1.1//EN" "http://www.w3.org/Graphics/SVG/1.1/DTD/svg11.dtd">
<svg width="100%" height="100%" viewBox="0 0 350 211" version="1.1" xmlns="http://www.w3.org/2000/svg" xmlns:xlink="http://www.w3.org/1999/xlink" xml:space="preserve" xmlns:serif="http://www.serif.com/" style="fill-rule:evenodd;clip-rule:evenodd;stroke-linejoin:round;stroke-miterlimit:2;">
    <g id="Artboard1" transform="matrix(0.437779,0,0,0.568038,0,-11.3203)">
        <rect x="0" y="19.929" width="799.49" height="370.071" style="fill:none;"/>
        <g id="Layer-1" serif:id="Layer 1" transform="matrix(2.28426,0,0,1.76044,0,-13.5196)">
            <g transform="matrix(0.442782,0,0,0.442782,-2,17.2454)">
                <g transform="matrix(135.114,0,0,135.114,189.718,115.185)">
                    <path d="M0.096,-0L0.096,-0.705L0.131,-0.705L0.597,-0.072L0.597,-0.705L0.636,-0.705L0.636,-0L0.602,-0L0.135,-0.634L0.135,-0L0.096,-0Z" style="fill-rule:nonzero;"/>
                </g>
                <g transform="matrix(135.114,0,0,135.114,288.622,115.185)">
                    <path d="M0.231,0.008C0.2,0.008 0.171,0.002 0.146,-0.011C0.121,-0.024 0.101,-0.041 0.086,-0.063C0.071,-0.084 0.064,-0.108 0.064,-0.135C0.064,-0.171 0.073,-0.199 0.091,-0.22C0.108,-0.24 0.138,-0.254 0.182,-0.263C0.225,-0.271 0.284,-0.275 0.359,-0.275L0.389,-0.275L0.389,-0.315C0.389,-0.363 0.38,-0.398 0.361,-0.42C0.342,-0.442 0.312,-0.453 0.271,-0.453C0.241,-0.453 0.213,-0.449 0.187,-0.44C0.16,-0.431 0.133,-0.417 0.104,-0.398L0.084,-0.434C0.109,-0.452 0.138,-0.466 0.172,-0.477C0.205,-0.487 0.237,-0.492 0.269,-0.492C0.324,-0.492 0.365,-0.478 0.392,-0.449C0.418,-0.42 0.431,-0.376 0.431,-0.315L0.431,-0L0.39,-0L0.39,-0.09C0.376,-0.059 0.355,-0.035 0.328,-0.018C0.3,-0.001 0.268,0.008 0.231,0.008ZM0.234,-0.03C0.265,-0.03 0.292,-0.038 0.315,-0.053C0.338,-0.067 0.356,-0.088 0.369,-0.114C0.382,-0.139 0.389,-0.168 0.389,-0.201L0.389,-0.238L0.361,-0.238C0.295,-0.238 0.244,-0.235 0.208,-0.23C0.171,-0.224 0.146,-0.214 0.132,-0.2C0.117,-0.185 0.11,-0.165 0.11,-0.139C0.11,-0.107 0.121,-0.081 0.144,-0.061C0.166,-0.04 0.196,-0.03 0.234,-0.03Z" style="fill-rule:nonzero;"/>
                </g>
                <g transform="matrix(135.114,0,0,135.114,359.017,115.185)">
                    <path d="M0.255,0.008C0.204,0.008 0.166,-0.006 0.141,-0.035C0.116,-0.064 0.103,-0.104 0.103,-0.156L0.103,-0.448L0.006,-0.448L0.006,-0.484L0.103,-0.484L0.103,-0.635L0.145,-0.635L0.145,-0.484L0.304,-0.484L0.304,-0.448L0.145,-0.448L0.145,-0.165C0.145,-0.122 0.154,-0.089 0.171,-0.066C0.188,-0.043 0.217,-0.031 0.258,-0.031C0.27,-0.031 0.282,-0.033 0.293,-0.036C0.304,-0.039 0.313,-0.041 0.32,-0.044L0.33,-0.009C0.324,-0.005 0.313,-0.001 0.298,0.003C0.283,0.006 0.268,0.008 0.255,0.008Z" style="fill-rule:nonzero;"/>
                </g>
                <g transform="matrix(135.114,0,0,135.114,401.443,115.185)">
                    <path d="M0.074,-0.619L0.074,-0.682L0.138,-0.682L0.138,-0.619L0.074,-0.619ZM0.085,-0L0.085,-0.484L0.127,-0.484L0.127,-0L0.085,-0Z" style="fill-rule:nonzero;"/>
                </g>
                <g transform="matrix(135.114,0,0,135.114,429.997,115.185)">
                    <path d="M0.269,0.008C0.225,0.008 0.187,-0.002 0.155,-0.023C0.122,-0.044 0.097,-0.073 0.08,-0.11C0.062,-0.147 0.053,-0.191 0.053,-0.242C0.053,-0.293 0.062,-0.337 0.08,-0.374C0.097,-0.411 0.122,-0.44 0.155,-0.461C0.187,-0.482 0.225,-0.492 0.269,-0.492C0.313,-0.492 0.351,-0.482 0.384,-0.461C0.416,-0.44 0.441,-0.411 0.459,-0.374C0.476,-0.337 0.485,-0.293 0.485,-0.242C0.485,-0.191 0.476,-0.147 0.459,-0.11C0.441,-0.073 0.416,-0.044 0.384,-0.023C0.351,-0.002 0.313,0.008 0.269,0.008ZM0.269,-0.031C0.322,-0.031 0.365,-0.05 0.396,-0.087C0.427,-0.124 0.442,-0.175 0.442,-0.242C0.442,-0.309 0.427,-0.361 0.396,-0.398C0.365,-0.435 0.322,-0.453 0.269,-0.453C0.216,-0.453 0.174,-0.435 0.143,-0.398C0.112,-0.361 0.096,-0.309 0.096,-0.242C0.096,-0.175 0.112,-0.124 0.143,-0.087C0.174,-0.05 0.216,-0.031 0.269,-0.031Z" style="fill-rule:nonzero;"/>
                </g>
                <g transform="matrix(135.114,0,0,135.114,502.598,115.185)">
                    <path d="M0.085,-0L0.085,-0.484L0.126,-0.484L0.126,-0.394C0.142,-0.427 0.165,-0.451 0.196,-0.468C0.226,-0.484 0.26,-0.492 0.297,-0.492C0.412,-0.492 0.47,-0.431 0.47,-0.308L0.47,-0L0.428,-0L0.428,-0.304C0.428,-0.355 0.418,-0.393 0.397,-0.417C0.376,-0.441 0.343,-0.453 0.297,-0.453C0.246,-0.453 0.205,-0.437 0.174,-0.406C0.142,-0.374 0.127,-0.331 0.127,-0.278L0.127,-0L0.085,-0Z" style="fill-rule:nonzero;"/>
                </g>
                <g transform="matrix(135.114,0,0,135.114,577.226,115.185)">
                    <path d="M0.231,0.008C0.2,0.008 0.171,0.002 0.146,-0.011C0.121,-0.024 0.101,-0.041 0.086,-0.063C0.071,-0.084 0.064,-0.108 0.064,-0.135C0.064,-0.171 0.073,-0.199 0.091,-0.22C0.108,-0.24 0.138,-0.254 0.182,-0.263C0.225,-0.271 0.284,-0.275 0.359,-0.275L0.389,-0.275L0.389,-0.315C0.389,-0.363 0.38,-0.398 0.361,-0.42C0.342,-0.442 0.312,-0.453 0.271,-0.453C0.241,-0.453 0.213,-0.449 0.187,-0.44C0.16,-0.431 0.133,-0.417 0.104,-0.398L0.084,-0.434C0.109,-0.452 0.138,-0.466 0.172,-0.477C0.205,-0.487 0.237,-0.492 0.269,-0.492C0.324,-0.492 0.365,-0.478 0.392,-0.449C0.418,-0.42 0.431,-0.376 0.431,-0.315L0.431,-0L0.39,-0L0.39,-0.09C0.376,-0.059 0.355,-0.035 0.328,-0.018C0.3,-0.001 0.268,0.008 0.231,0.008ZM0.234,-0.03C0.265,-0.03 0.292,-0.038 0.315,-0.053C0.338,-0.067 0.356,-0.088 0.369,-0.114C0.382,-0.139 0.389,-0.168 0.389,-0.201L0.389,-0.238L0.361,-0.238C0.295,-0.238 0.244,-0.235 0.208,-0.23C0.171,-0.224 0.146,-0.214 0.132,-0.2C0.117,-0.185 0.11,-0.165 0.11,-0.139C0.11,-0.107 0.121,-0.081 0.144,-0.061C0.166,-0.04 0.196,-0.03 0.234,-0.03Z" style="fill-rule:nonzero;"/>
                </g>
                <g transform="matrix(135.114,0,0,135.114,647.621,115.185)">
                    <path d="M0.217,0.008C0.175,0.008 0.142,-0.006 0.12,-0.033C0.097,-0.059 0.085,-0.097 0.085,-0.146L0.085,-0.705L0.127,-0.705L0.127,-0.153C0.127,-0.072 0.158,-0.031 0.221,-0.031C0.238,-0.031 0.253,-0.033 0.268,-0.037L0.265,0.002C0.247,0.006 0.231,0.008 0.217,0.008Z" style="fill-rule:nonzero;"/>
                </g>
                <g transform="matrix(84.845,0,0,84.845,17.6807,372.04)">
                    <path d="M0.096,-0L0.096,-0.705L0.351,-0.705C0.425,-0.705 0.482,-0.688 0.521,-0.654C0.56,-0.62 0.58,-0.571 0.58,-0.508C0.58,-0.456 0.565,-0.414 0.536,-0.382C0.507,-0.349 0.465,-0.329 0.412,-0.32C0.44,-0.309 0.465,-0.283 0.487,-0.242L0.618,-0L0.572,-0L0.45,-0.226C0.431,-0.261 0.411,-0.284 0.388,-0.295C0.365,-0.306 0.334,-0.312 0.295,-0.312L0.138,-0.312L0.138,-0L0.096,-0ZM0.138,-0.351L0.347,-0.351C0.473,-0.351 0.536,-0.404 0.536,-0.509C0.536,-0.614 0.473,-0.666 0.347,-0.666L0.138,-0.666L0.138,-0.351Z" style="fill-rule:nonzero;"/>
                </g>
                <g transform="matrix(84.845,0,0,84.845,75.1208,372.04)">
                    <path d="M0.074,-0.619L0.074,-0.682L0.138,-0.682L0.138,-0.619L0.074,-0.619ZM0.085,-0L0.085,-0.484L0.127,-0.484L0.127,-0L0.085,-0Z" style="fill-rule:nonzero;"/>
                </g>
                <g transform="matrix(84.845,0,0,84.845,93.1079,372.04)">
                    <path d="M0.105,-0L0.105,-0.448L0.008,-0.448L0.008,-0.484L0.105,-0.484L0.105,-0.515C0.105,-0.635 0.163,-0.698 0.28,-0.705L0.311,-0.707L0.316,-0.67L0.27,-0.667C0.188,-0.661 0.147,-0.61 0.147,-0.515L0.147,-0.484L0.293,-0.484L0.293,-0.448L0.147,-0.448L0.147,-0L0.105,-0ZM0.523,0.008C0.481,0.008 0.448,-0.006 0.426,-0.033C0.403,-0.059 0.391,-0.097 0.391,-0.146L0.391,-0.705L0.433,-0.705L0.433,-0.153C0.433,-0.072 0.464,-0.031 0.527,-0.031C0.544,-0.031 0.559,-0.033 0.574,-0.037L0.571,0.002C0.553,0.006 0.537,0.008 0.523,0.008Z" style="fill-rule:nonzero;"/>
                </g>
                <g transform="matrix(84.845,0,0,84.845,136.718,372.04)">
                    <path d="M0.286,0.008C0.214,0.008 0.157,-0.014 0.116,-0.059C0.074,-0.103 0.053,-0.163 0.053,-0.24C0.053,-0.291 0.063,-0.335 0.082,-0.373C0.1,-0.41 0.127,-0.44 0.161,-0.461C0.194,-0.482 0.233,-0.492 0.277,-0.492C0.34,-0.492 0.388,-0.471 0.423,-0.431C0.458,-0.389 0.475,-0.333 0.475,-0.26L0.475,-0.234L0.096,-0.234C0.097,-0.169 0.114,-0.119 0.147,-0.084C0.18,-0.049 0.225,-0.031 0.284,-0.031C0.314,-0.031 0.342,-0.036 0.369,-0.046C0.395,-0.055 0.421,-0.071 0.447,-0.094L0.467,-0.06C0.446,-0.039 0.42,-0.023 0.387,-0.011C0.354,0.002 0.321,0.008 0.286,0.008ZM0.276,-0.454C0.222,-0.454 0.18,-0.437 0.15,-0.402C0.119,-0.367 0.102,-0.324 0.097,-0.271L0.436,-0.271C0.434,-0.328 0.42,-0.372 0.393,-0.405C0.366,-0.438 0.327,-0.454 0.276,-0.454Z" style="fill-rule:nonzero;"/>
                </g>
                <g transform="matrix(84.845,0,0,84.845,202.134,372.04)">
                    <path d="M0.381,0.008C0.315,0.008 0.259,-0.007 0.212,-0.036C0.165,-0.065 0.13,-0.106 0.105,-0.16C0.08,-0.214 0.067,-0.278 0.067,-0.353C0.067,-0.428 0.08,-0.492 0.105,-0.546C0.13,-0.599 0.165,-0.641 0.212,-0.67C0.259,-0.699 0.315,-0.713 0.381,-0.713C0.482,-0.713 0.561,-0.681 0.619,-0.618L0.597,-0.583C0.566,-0.614 0.533,-0.637 0.498,-0.651C0.463,-0.665 0.424,-0.672 0.38,-0.672C0.294,-0.672 0.228,-0.644 0.182,-0.589C0.135,-0.533 0.112,-0.454 0.112,-0.353C0.112,-0.252 0.135,-0.173 0.182,-0.117C0.228,-0.061 0.294,-0.033 0.38,-0.033C0.424,-0.033 0.463,-0.04 0.498,-0.054C0.533,-0.068 0.566,-0.091 0.597,-0.122L0.619,-0.087C0.561,-0.024 0.482,0.008 0.381,0.008Z" style="fill-rule:nonzero;"/>
                </g>
                <g transform="matrix(84.845,0,0,84.845,259.574,372.04)">
                    <path d="M0.085,-0L0.085,-0.705L0.127,-0.705L0.127,-0.396C0.143,-0.428 0.166,-0.452 0.196,-0.468C0.226,-0.484 0.26,-0.492 0.297,-0.492C0.412,-0.492 0.47,-0.431 0.47,-0.308L0.47,-0L0.428,-0L0.428,-0.304C0.428,-0.355 0.418,-0.393 0.397,-0.417C0.376,-0.441 0.343,-0.453 0.297,-0.453C0.246,-0.453 0.205,-0.437 0.174,-0.406C0.142,-0.374 0.127,-0.331 0.127,-0.278L0.127,-0L0.085,-0Z" style="fill-rule:nonzero;"/>
                </g>
                <g transform="matrix(84.845,0,0,84.845,306.493,372.04)">
                    <path d="M0.231,0.008C0.2,0.008 0.171,0.002 0.146,-0.011C0.121,-0.024 0.101,-0.041 0.086,-0.063C0.071,-0.084 0.064,-0.108 0.064,-0.135C0.064,-0.171 0.073,-0.199 0.091,-0.22C0.108,-0.24 0.138,-0.254 0.182,-0.263C0.225,-0.271 0.284,-0.275 0.359,-0.275L0.389,-0.275L0.389,-0.315C0.389,-0.363 0.38,-0.398 0.361,-0.42C0.342,-0.442 0.312,-0.453 0.271,-0.453C0.241,-0.453 0.213,-0.449 0.187,-0.44C0.16,-0.431 0.133,-0.417 0.104,-0.398L0.084,-0.434C0.109,-0.452 0.138,-0.466 0.172,-0.477C0.205,-0.487 0.237,-0.492 0.269,-0.492C0.324,-0.492 0.365,-0.478 0.392,-0.449C0.418,-0.42 0.431,-0.376 0.431,-0.315L0.431,-0L0.39,-0L0.39,-0.09C0.376,-0.059 0.355,-0.035 0.328,-0.018C0.3,-0.001 0.268,0.008 0.231,0.008ZM0.234,-0.03C0.265,-0.03 0.292,-0.038 0.315,-0.053C0.338,-0.067 0.356,-0.088 0.369,-0.114C0.382,-0.139 0.389,-0.168 0.389,-0.201L0.389,-0.238L0.361,-0.238C0.295,-0.238 0.244,-0.235 0.208,-0.23C0.171,-0.224 0.146,-0.214 0.132,-0.2C0.117,-0.185 0.11,-0.165 0.11,-0.139C0.11,-0.107 0.121,-0.081 0.144,-0.061C0.166,-0.04 0.196,-0.03 0.234,-0.03Z" style="fill-rule:nonzero;"/>
                </g>
                <g transform="matrix(84.845,0,0,84.845,350.697,372.04)">
                    <path d="M0.087,-0L0.087,-0.484L0.128,-0.484L0.128,-0.396C0.143,-0.427 0.163,-0.451 0.19,-0.468C0.216,-0.484 0.247,-0.492 0.282,-0.492C0.36,-0.492 0.409,-0.458 0.429,-0.39C0.443,-0.421 0.464,-0.446 0.493,-0.465C0.522,-0.483 0.555,-0.492 0.594,-0.492C0.7,-0.492 0.753,-0.431 0.753,-0.308L0.753,-0L0.711,-0L0.711,-0.304C0.711,-0.355 0.702,-0.393 0.684,-0.417C0.665,-0.441 0.635,-0.453 0.592,-0.453C0.546,-0.453 0.509,-0.437 0.482,-0.406C0.455,-0.374 0.441,-0.331 0.441,-0.278L0.441,-0L0.399,-0L0.399,-0.304C0.399,-0.355 0.39,-0.393 0.372,-0.417C0.353,-0.441 0.323,-0.453 0.28,-0.453C0.234,-0.453 0.197,-0.437 0.17,-0.406C0.143,-0.374 0.129,-0.331 0.129,-0.278L0.129,-0L0.087,-0Z" style="fill-rule:nonzero;"/>
                </g>
                <g transform="matrix(84.845,0,0,84.845,421.694,372.04)">
                    <path d="M0.085,0.18L0.085,-0.484L0.127,-0.484L0.127,-0.389C0.142,-0.421 0.164,-0.446 0.194,-0.465C0.224,-0.483 0.259,-0.492 0.3,-0.492C0.344,-0.492 0.382,-0.482 0.414,-0.462C0.446,-0.441 0.471,-0.412 0.489,-0.375C0.506,-0.338 0.515,-0.293 0.515,-0.242C0.515,-0.165 0.496,-0.105 0.457,-0.06C0.418,-0.015 0.366,0.008 0.3,0.008C0.259,0.008 0.224,-0.001 0.194,-0.02C0.164,-0.038 0.142,-0.063 0.127,-0.095L0.127,0.18L0.085,0.18ZM0.299,-0.031C0.352,-0.031 0.395,-0.05 0.426,-0.087C0.456,-0.124 0.472,-0.175 0.472,-0.242C0.472,-0.309 0.456,-0.361 0.426,-0.398C0.395,-0.435 0.352,-0.453 0.299,-0.453C0.246,-0.453 0.204,-0.435 0.173,-0.398C0.142,-0.361 0.126,-0.309 0.126,-0.242C0.126,-0.175 0.142,-0.124 0.173,-0.087C0.204,-0.05 0.246,-0.031 0.299,-0.031Z" style="fill-rule:nonzero;"/>
                </g>
                <g transform="matrix(84.845,0,0,84.845,469.782,372.04)">
                    <path d="M0.074,-0.619L0.074,-0.682L0.138,-0.682L0.138,-0.619L0.074,-0.619ZM0.085,-0L0.085,-0.484L0.127,-0.484L0.127,-0L0.085,-0Z" style="fill-rule:nonzero;"/>
                </g>
                <g transform="matrix(84.845,0,0,84.845,487.665,372.04)">
                    <path d="M0.269,0.008C0.225,0.008 0.187,-0.002 0.155,-0.023C0.122,-0.044 0.097,-0.073 0.08,-0.11C0.062,-0.147 0.053,-0.191 0.053,-0.242C0.053,-0.293 0.062,-0.337 0.08,-0.374C0.097,-0.411 0.122,-0.44 0.155,-0.461C0.187,-0.482 0.225,-0.492 0.269,-0.492C0.313,-0.492 0.351,-0.482 0.384,-0.461C0.416,-0.44 0.441,-0.411 0.459,-0.374C0.476,-0.337 0.485,-0.293 0.485,-0.242C0.485,-0.191 0.476,-0.147 0.459,-0.11C0.441,-0.073 0.416,-0.044 0.384,-0.023C0.351,-0.002 0.313,0.008 0.269,0.008ZM0.269,-0.031C0.322,-0.031 0.365,-0.05 0.396,-0.087C0.427,-0.124 0.442,-0.175 0.442,-0.242C0.442,-0.309 0.427,-0.361 0.396,-0.398C0.365,-0.435 0.322,-0.453 0.269,-0.453C0.216,-0.453 0.174,-0.435 0.143,-0.398C0.112,-0.361 0.096,-0.309 0.096,-0.242C0.096,-0.175 0.112,-0.124 0.143,-0.087C0.174,-0.05 0.216,-0.031 0.269,-0.031Z" style="fill-rule:nonzero;"/>
                </g>
                <g transform="matrix(84.845,0,0,84.845,533.208,372.04)">
                    <path d="M0.085,-0L0.085,-0.484L0.126,-0.484L0.126,-0.394C0.142,-0.427 0.165,-0.451 0.196,-0.468C0.226,-0.484 0.26,-0.492 0.297,-0.492C0.412,-0.492 0.47,-0.431 0.47,-0.308L0.47,-0L0.428,-0L0.428,-0.304C0.428,-0.355 0.418,-0.393 0.397,-0.417C0.376,-0.441 0.343,-0.453 0.297,-0.453C0.246,-0.453 0.205,-0.437 0.174,-0.406C0.142,-0.374 0.127,-0.331 0.127,-0.278L0.127,-0L0.085,-0Z" style="fill-rule:nonzero;"/>
                </g>
                <g transform="matrix(84.845,0,0,84.845,580.024,372.04)">
                    <path d="M0.236,0.008C0.201,0.008 0.168,0.003 0.136,-0.009C0.104,-0.02 0.078,-0.035 0.057,-0.056L0.077,-0.09C0.101,-0.069 0.127,-0.054 0.155,-0.045C0.182,-0.036 0.21,-0.031 0.239,-0.031C0.282,-0.031 0.316,-0.039 0.339,-0.056C0.362,-0.073 0.373,-0.095 0.373,-0.124C0.373,-0.147 0.366,-0.165 0.351,-0.178C0.335,-0.191 0.311,-0.201 0.278,-0.209L0.195,-0.229C0.153,-0.239 0.122,-0.254 0.103,-0.275C0.083,-0.296 0.073,-0.322 0.073,-0.355C0.073,-0.396 0.089,-0.43 0.121,-0.455C0.152,-0.48 0.194,-0.492 0.247,-0.492C0.28,-0.492 0.311,-0.486 0.34,-0.475C0.368,-0.464 0.391,-0.448 0.408,-0.427L0.388,-0.393C0.349,-0.433 0.302,-0.453 0.246,-0.453C0.205,-0.453 0.174,-0.444 0.151,-0.427C0.128,-0.409 0.117,-0.385 0.117,-0.356C0.117,-0.333 0.124,-0.315 0.138,-0.301C0.152,-0.287 0.174,-0.276 0.205,-0.269L0.288,-0.249C0.331,-0.238 0.364,-0.223 0.385,-0.204C0.406,-0.185 0.417,-0.159 0.417,-0.126C0.417,-0.085 0.401,-0.053 0.368,-0.029C0.335,-0.004 0.291,0.008 0.236,0.008Z" style="fill-rule:nonzero;"/>
                </g>
                <g transform="matrix(84.845,0,0,84.845,620.222,372.04)">
                    <path d="M0.085,-0L0.085,-0.705L0.127,-0.705L0.127,-0.396C0.143,-0.428 0.166,-0.452 0.196,-0.468C0.226,-0.484 0.26,-0.492 0.297,-0.492C0.412,-0.492 0.47,-0.431 0.47,-0.308L0.47,-0L0.428,-0L0.428,-0.304C0.428,-0.355 0.418,-0.393 0.397,-0.417C0.376,-0.441 0.343,-0.453 0.297,-0.453C0.246,-0.453 0.205,-0.437 0.174,-0.406C0.142,-0.374 0.127,-0.331 0.127,-0.278L0.127,-0L0.085,-0Z" style="fill-rule:nonzero;"/>
                </g>
                <g transform="matrix(84.845,0,0,84.845,667.037,372.04)">
                    <path d="M0.074,-0.619L0.074,-0.682L0.138,-0.682L0.138,-0.619L0.074,-0.619ZM0.085,-0L0.085,-0.484L0.127,-0.484L0.127,-0L0.085,-0Z" style="fill-rule:nonzero;"/>
                </g>
                <g transform="matrix(84.845,0,0,84.845,684.921,372.04)">
                    <path d="M0.085,0.18L0.085,-0.484L0.127,-0.484L0.127,-0.389C0.142,-0.421 0.164,-0.446 0.194,-0.465C0.224,-0.483 0.259,-0.492 0.3,-0.492C0.344,-0.492 0.382,-0.482 0.414,-0.462C0.446,-0.441 0.471,-0.412 0.489,-0.375C0.506,-0.338 0.515,-0.293 0.515,-0.242C0.515,-0.165 0.496,-0.105 0.457,-0.06C0.418,-0.015 0.366,0.008 0.3,0.008C0.259,0.008 0.224,-0.001 0.194,-0.02C0.164,-0.038 0.142,-0.063 0.127,-0.095L0.127,0.18L0.085,0.18ZM0.299,-0.031C0.352,-0.031 0.395,-0.05 0.426,-0.087C0.456,-0.124 0.472,-0.175 0.472,-0.242C0.472,-0.309 0.456,-0.361 0.426,-0.398C0.395,-0.435 0.352,-0.453 0.299,-0.453C0.246,-0.453 0.204,-0.435 0.173,-0.398C0.142,-0.361 0.126,-0.309 0.126,-0.242C0.126,-0.175 0.142,-0.124 0.173,-0.087C0.204,-0.05 0.246,-0.031 0.299,-0.031Z" style="fill-rule:nonzero;"/>
                </g>
                <g transform="matrix(84.845,0,0,84.845,733.009,372.04)">
                    <path d="M0.236,0.008C0.201,0.008 0.168,0.003 0.136,-0.009C0.104,-0.02 0.078,-0.035 0.057,-0.056L0.077,-0.09C0.101,-0.069 0.127,-0.054 0.155,-0.045C0.182,-0.036 0.21,-0.031 0.239,-0.031C0.282,-0.031 0.316,-0.039 0.339,-0.056C0.362,-0.073 0.373,-0.095 0.373,-0.124C0.373,-0.147 0.366,-0.165 0.351,-0.178C0.335,-0.191 0.311,-0.201 0.278,-0.209L0.195,-0.229C0.153,-0.239 0.122,-0.254 0.103,-0.275C0.083,-0.296 0.073,-0.322 0.073,-0.355C0.073,-0.396 0.089,-0.43 0.121,-0.455C0.152,-0.48 0.194,-0.492 0.247,-0.492C0.28,-0.492 0.311,-0.486 0.34,-0.475C0.368,-0.464 0.391,-0.448 0.408,-0.427L0.388,-0.393C0.349,-0.433 0.302,-0.453 0.246,-0.453C0.205,-0.453 0.174,-0.444 0.151,-0.427C0.128,-0.409 0.117,-0.385 0.117,-0.356C0.117,-0.333 0.124,-0.315 0.138,-0.301C0.152,-0.287 0.174,-0.276 0.205,-0.269L0.288,-0.249C0.331,-0.238 0.364,-0.223 0.385,-0.204C0.406,-0.185 0.417,-0.159 0.417,-0.126C0.417,-0.085 0.401,-0.053 0.368,-0.029C0.335,-0.004 0.291,0.008 0.236,0.008Z" style="fill-rule:nonzero;"/>
                </g>
            </g>
            <g transform="matrix(0.946673,0,0,0.946673,-95.1987,22.7502)">
                <g transform="matrix(37.6,0,0,37.6,106.458,210)">
                    <path d="M0.117,-0L0.117,-0.087L0.277,-0.087L0.277,-0.585L0.152,-0.507L0.11,-0.584L0.307,-0.705L0.38,-0.705L0.38,-0.087L0.53,-0.087L0.53,-0L0.117,-0Z" style="fill-rule:nonzero;"/>
                </g>
                <g transform="matrix(37.6,0,0,37.6,129.018,210)">
                    <path d="M0.311,0.009C0.266,0.009 0.222,0.002 0.18,-0.013C0.137,-0.027 0.102,-0.047 0.074,-0.073L0.109,-0.153C0.17,-0.104 0.237,-0.079 0.309,-0.079C0.355,-0.079 0.391,-0.092 0.417,-0.117C0.443,-0.141 0.456,-0.174 0.456,-0.215C0.456,-0.257 0.444,-0.291 0.419,-0.318C0.394,-0.345 0.36,-0.358 0.316,-0.358C0.254,-0.358 0.204,-0.332 0.167,-0.281L0.095,-0.281L0.095,-0.705L0.515,-0.705L0.515,-0.618L0.196,-0.618L0.196,-0.395C0.233,-0.428 0.281,-0.444 0.338,-0.444C0.383,-0.444 0.421,-0.435 0.454,-0.416C0.487,-0.397 0.512,-0.371 0.53,-0.338C0.548,-0.304 0.557,-0.265 0.557,-0.22C0.557,-0.175 0.547,-0.135 0.527,-0.101C0.507,-0.066 0.479,-0.039 0.442,-0.02C0.405,-0.001 0.362,0.009 0.311,0.009Z" style="fill-rule:nonzero;"/>
                </g>
                <g transform="matrix(37.6,0,0,37.6,151.578,210)">
                    <rect x="0.07" y="-0.308" width="0.288" height="0.082" style="fill-rule:nonzero;"/>
                </g>
                <g transform="matrix(37.6,0,0,37.6,167.709,210)">
                    <path d="M0.117,-0L0.117,-0.087L0.277,-0.087L0.277,-0.585L0.152,-0.507L0.11,-0.584L0.307,-0.705L0.38,-0.705L0.38,-0.087L0.53,-0.087L0.53,-0L0.117,-0Z" style="fill-rule:nonzero;"/>
                </g>
                <g transform="matrix(37.6,0,0,37.6,190.269,210)">
                    <path d="M0.325,0.009C0.24,0.009 0.174,-0.021 0.128,-0.082C0.081,-0.143 0.058,-0.228 0.058,-0.337C0.058,-0.458 0.084,-0.551 0.136,-0.616C0.188,-0.681 0.26,-0.714 0.352,-0.714C0.388,-0.714 0.424,-0.707 0.461,-0.693C0.498,-0.678 0.528,-0.658 0.553,-0.632L0.517,-0.554C0.493,-0.578 0.466,-0.596 0.438,-0.608C0.409,-0.62 0.379,-0.626 0.35,-0.626C0.288,-0.626 0.241,-0.604 0.208,-0.559C0.175,-0.514 0.158,-0.446 0.158,-0.357L0.158,-0.317C0.171,-0.358 0.195,-0.39 0.228,-0.413C0.261,-0.436 0.299,-0.447 0.342,-0.447C0.383,-0.447 0.42,-0.437 0.452,-0.418C0.483,-0.399 0.508,-0.372 0.526,-0.339C0.544,-0.305 0.553,-0.266 0.553,-0.223C0.553,-0.178 0.543,-0.137 0.524,-0.103C0.505,-0.068 0.478,-0.04 0.444,-0.021C0.409,-0.001 0.37,0.009 0.325,0.009ZM0.319,-0.075C0.36,-0.075 0.393,-0.088 0.418,-0.115C0.443,-0.142 0.456,-0.176 0.456,-0.219C0.456,-0.262 0.443,-0.296 0.418,-0.323C0.393,-0.35 0.36,-0.363 0.319,-0.363C0.278,-0.363 0.245,-0.35 0.22,-0.323C0.195,-0.296 0.182,-0.262 0.182,-0.219C0.182,-0.176 0.195,-0.142 0.22,-0.115C0.245,-0.088 0.278,-0.075 0.319,-0.075Z" style="fill-rule:nonzero;"/>
                </g>
                <g transform="matrix(37.6,0,0,37.6,222.718,210)">
                    <path d="M0.388,0.009C0.321,0.009 0.262,-0.006 0.213,-0.036C0.164,-0.065 0.126,-0.107 0.099,-0.162C0.072,-0.216 0.058,-0.28 0.058,-0.353C0.058,-0.427 0.072,-0.491 0.099,-0.545C0.126,-0.599 0.164,-0.641 0.213,-0.67C0.262,-0.699 0.321,-0.714 0.388,-0.714C0.455,-0.714 0.513,-0.699 0.563,-0.67C0.612,-0.641 0.651,-0.599 0.678,-0.545C0.705,-0.491 0.718,-0.427 0.718,-0.354C0.718,-0.28 0.705,-0.216 0.678,-0.162C0.651,-0.107 0.612,-0.065 0.563,-0.036C0.513,-0.006 0.455,0.009 0.388,0.009ZM0.388,-0.081C0.458,-0.081 0.513,-0.105 0.552,-0.153C0.591,-0.2 0.61,-0.267 0.61,-0.353C0.61,-0.439 0.591,-0.506 0.552,-0.553C0.513,-0.6 0.459,-0.624 0.388,-0.624C0.318,-0.624 0.264,-0.6 0.225,-0.553C0.186,-0.506 0.166,-0.439 0.166,-0.353C0.166,-0.267 0.186,-0.2 0.225,-0.153C0.264,-0.105 0.318,-0.081 0.388,-0.081Z" style="fill-rule:nonzero;"/>
                </g>
                <g transform="matrix(37.6,0,0,37.6,251.858,210)">
                    <path d="M0.286,0.009C0.236,0.009 0.193,-0.001 0.157,-0.023C0.12,-0.044 0.092,-0.073 0.072,-0.112C0.052,-0.15 0.042,-0.195 0.042,-0.247C0.042,-0.324 0.064,-0.385 0.108,-0.43C0.152,-0.475 0.211,-0.497 0.286,-0.497C0.317,-0.497 0.347,-0.492 0.377,-0.481C0.407,-0.47 0.432,-0.456 0.451,-0.437L0.419,-0.366C0.4,-0.383 0.38,-0.396 0.358,-0.405C0.335,-0.413 0.314,-0.417 0.294,-0.417C0.247,-0.417 0.21,-0.402 0.185,-0.373C0.159,-0.343 0.146,-0.301 0.146,-0.246C0.146,-0.191 0.159,-0.149 0.185,-0.118C0.21,-0.087 0.247,-0.071 0.294,-0.071C0.314,-0.071 0.335,-0.075 0.358,-0.084C0.38,-0.092 0.4,-0.105 0.419,-0.122L0.451,-0.05C0.432,-0.032 0.407,-0.018 0.377,-0.007C0.346,0.004 0.316,0.009 0.286,0.009Z" style="fill-rule:nonzero;"/>
                </g>
                <g transform="matrix(37.6,0,0,37.6,269.454,210)">
                    <path d="M0.279,0.009C0.218,0.009 0.172,-0.007 0.142,-0.038C0.112,-0.069 0.097,-0.115 0.097,-0.174L0.097,-0.41L0.002,-0.41L0.002,-0.488L0.097,-0.488L0.097,-0.635L0.198,-0.635L0.198,-0.488L0.349,-0.488L0.349,-0.41L0.198,-0.41L0.198,-0.182C0.198,-0.147 0.206,-0.12 0.221,-0.102C0.236,-0.084 0.26,-0.075 0.294,-0.075C0.305,-0.075 0.315,-0.076 0.325,-0.079C0.335,-0.081 0.345,-0.084 0.355,-0.087L0.371,-0.011C0.361,-0.005 0.347,-0 0.33,0.004C0.312,0.007 0.295,0.009 0.279,0.009Z" style="fill-rule:nonzero;"/>
                </g>
                <g transform="matrix(37.6,0,0,37.6,282.99,210)">
                    <path d="M0.283,0.009C0.234,0.009 0.191,-0.001 0.155,-0.022C0.119,-0.043 0.091,-0.072 0.072,-0.11C0.052,-0.147 0.042,-0.192 0.042,-0.244C0.042,-0.296 0.052,-0.341 0.072,-0.379C0.091,-0.416 0.119,-0.445 0.155,-0.466C0.191,-0.487 0.234,-0.497 0.283,-0.497C0.331,-0.497 0.373,-0.487 0.409,-0.466C0.445,-0.445 0.473,-0.416 0.493,-0.379C0.513,-0.341 0.523,-0.296 0.523,-0.244C0.523,-0.192 0.513,-0.147 0.493,-0.11C0.473,-0.072 0.445,-0.043 0.409,-0.022C0.373,-0.001 0.331,0.009 0.283,0.009ZM0.283,-0.069C0.324,-0.069 0.358,-0.084 0.383,-0.114C0.408,-0.144 0.421,-0.187 0.421,-0.244C0.421,-0.301 0.408,-0.344 0.383,-0.374C0.358,-0.403 0.324,-0.418 0.283,-0.418C0.241,-0.418 0.207,-0.403 0.182,-0.374C0.157,-0.344 0.144,-0.301 0.144,-0.244C0.144,-0.187 0.157,-0.144 0.182,-0.114C0.207,-0.084 0.241,-0.069 0.283,-0.069Z" style="fill-rule:nonzero;"/>
                </g>
                <g transform="matrix(37.6,0,0,37.6,304.234,210)">
                    <path d="M0.333,0.009C0.296,0.009 0.263,0.001 0.234,-0.016C0.205,-0.033 0.184,-0.055 0.17,-0.083L0.17,-0L0.071,-0L0.071,-0.705L0.172,-0.705L0.172,-0.409C0.187,-0.436 0.208,-0.457 0.237,-0.473C0.265,-0.489 0.297,-0.497 0.333,-0.497C0.376,-0.497 0.414,-0.487 0.447,-0.466C0.479,-0.445 0.504,-0.416 0.522,-0.379C0.539,-0.341 0.548,-0.296 0.548,-0.244C0.548,-0.192 0.539,-0.147 0.522,-0.109C0.504,-0.071 0.479,-0.042 0.447,-0.022C0.414,-0.001 0.376,0.009 0.333,0.009ZM0.308,-0.069C0.35,-0.069 0.384,-0.084 0.409,-0.114C0.434,-0.144 0.446,-0.187 0.446,-0.244C0.446,-0.301 0.434,-0.344 0.409,-0.374C0.384,-0.403 0.35,-0.418 0.308,-0.418C0.266,-0.418 0.233,-0.403 0.208,-0.374C0.183,-0.344 0.17,-0.301 0.17,-0.244C0.17,-0.187 0.183,-0.144 0.208,-0.114C0.233,-0.084 0.266,-0.069 0.308,-0.069Z" style="fill-rule:nonzero;"/>
                </g>
                <g transform="matrix(37.6,0,0,37.6,326.456,210)">
                    <path d="M0.3,0.009C0.22,0.009 0.157,-0.014 0.111,-0.059C0.065,-0.103 0.042,-0.165 0.042,-0.243C0.042,-0.293 0.052,-0.337 0.073,-0.376C0.093,-0.414 0.121,-0.444 0.157,-0.465C0.193,-0.486 0.234,-0.497 0.281,-0.497C0.348,-0.497 0.401,-0.475 0.44,-0.433C0.479,-0.389 0.498,-0.33 0.498,-0.255L0.498,-0.221L0.14,-0.221C0.147,-0.12 0.201,-0.069 0.301,-0.069C0.329,-0.069 0.357,-0.073 0.384,-0.082C0.411,-0.091 0.436,-0.105 0.46,-0.125L0.49,-0.055C0.468,-0.035 0.44,-0.019 0.405,-0.008C0.37,0.003 0.335,0.009 0.3,0.009ZM0.285,-0.426C0.243,-0.426 0.21,-0.413 0.185,-0.387C0.16,-0.361 0.145,-0.326 0.14,-0.283L0.413,-0.283C0.411,-0.328 0.399,-0.364 0.377,-0.389C0.355,-0.413 0.324,-0.426 0.285,-0.426Z" style="fill-rule:nonzero;"/>
                </g>
                <g transform="matrix(37.6,0,0,37.6,346.647,210)">
                    <path d="M0.071,-0L0.071,-0.488L0.169,-0.488L0.169,-0.401C0.194,-0.459 0.247,-0.491 0.327,-0.498L0.36,-0.5L0.367,-0.414L0.306,-0.408C0.217,-0.399 0.173,-0.354 0.173,-0.271L0.173,-0L0.071,-0Z" style="fill-rule:nonzero;"/>
                </g>
                <g transform="matrix(37.6,0,0,37.6,370.561,210)">
                    <path d="M0.085,-0L0.085,-0.077L0.32,-0.329C0.353,-0.364 0.376,-0.396 0.391,-0.425C0.405,-0.454 0.412,-0.483 0.412,-0.512C0.412,-0.588 0.367,-0.626 0.278,-0.626C0.21,-0.626 0.149,-0.6 0.095,-0.549L0.058,-0.628C0.085,-0.654 0.119,-0.675 0.16,-0.691C0.201,-0.706 0.244,-0.714 0.289,-0.714C0.362,-0.714 0.418,-0.697 0.457,-0.664C0.496,-0.631 0.515,-0.583 0.515,-0.521C0.515,-0.479 0.505,-0.438 0.485,-0.398C0.464,-0.358 0.432,-0.315 0.389,-0.27L0.215,-0.087L0.543,-0.087L0.543,-0L0.085,-0Z" style="fill-rule:nonzero;"/>
                </g>
                <g transform="matrix(37.6,0,0,37.6,393.121,210)">
                    <path d="M0.3,0.009C0.218,0.009 0.156,-0.022 0.113,-0.085C0.07,-0.147 0.048,-0.236 0.048,-0.353C0.048,-0.472 0.07,-0.562 0.113,-0.623C0.156,-0.684 0.218,-0.714 0.3,-0.714C0.383,-0.714 0.445,-0.684 0.488,-0.623C0.531,-0.562 0.552,-0.472 0.552,-0.354C0.552,-0.237 0.531,-0.147 0.488,-0.085C0.444,-0.022 0.382,0.009 0.3,0.009ZM0.3,-0.077C0.351,-0.077 0.388,-0.099 0.413,-0.144C0.438,-0.189 0.45,-0.259 0.45,-0.354C0.45,-0.449 0.438,-0.519 0.414,-0.563C0.389,-0.606 0.351,-0.628 0.3,-0.628C0.249,-0.628 0.212,-0.606 0.187,-0.562C0.162,-0.518 0.15,-0.449 0.15,-0.354C0.15,-0.259 0.162,-0.189 0.187,-0.144C0.212,-0.099 0.249,-0.077 0.3,-0.077Z" style="fill-rule:nonzero;"/>
                </g>
                <g transform="matrix(37.6,0,0,37.6,415.681,210)">
                    <path d="M0.085,-0L0.085,-0.077L0.32,-0.329C0.353,-0.364 0.376,-0.396 0.391,-0.425C0.405,-0.454 0.412,-0.483 0.412,-0.512C0.412,-0.588 0.367,-0.626 0.278,-0.626C0.21,-0.626 0.149,-0.6 0.095,-0.549L0.058,-0.628C0.085,-0.654 0.119,-0.675 0.16,-0.691C0.201,-0.706 0.244,-0.714 0.289,-0.714C0.362,-0.714 0.418,-0.697 0.457,-0.664C0.496,-0.631 0.515,-0.583 0.515,-0.521C0.515,-0.479 0.505,-0.438 0.485,-0.398C0.464,-0.358 0.432,-0.315 0.389,-0.27L0.215,-0.087L0.543,-0.087L0.543,-0L0.085,-0Z" style="fill-rule:nonzero;"/>
                </g>
                <g transform="matrix(37.6,0,0,37.6,438.241,210)">
                    <path d="M0.085,-0L0.085,-0.077L0.32,-0.329C0.353,-0.364 0.376,-0.396 0.391,-0.425C0.405,-0.454 0.412,-0.483 0.412,-0.512C0.412,-0.588 0.367,-0.626 0.278,-0.626C0.21,-0.626 0.149,-0.6 0.095,-0.549L0.058,-0.628C0.085,-0.654 0.119,-0.675 0.16,-0.691C0.201,-0.706 0.244,-0.714 0.289,-0.714C0.362,-0.714 0.418,-0.697 0.457,-0.664C0.496,-0.631 0.515,-0.583 0.515,-0.521C0.515,-0.479 0.505,-0.438 0.485,-0.398C0.464,-0.358 0.432,-0.315 0.389,-0.27L0.215,-0.087L0.543,-0.087L0.543,-0L0.085,-0Z" style="fill-rule:nonzero;"/>
                </g>
            </g>
            <g transform="matrix(0.442782,0,0,0.442782,11.3584,68.4738)">
                <path d="M0,139.879L25.661,109.141C43.434,123.811 62.049,133.119 84.607,133.119C102.373,133.119 113.091,126.066 113.091,114.498L113.091,113.929C113.091,102.941 106.32,97.3 73.322,88.843C33.559,78.689 7.892,67.681 7.892,28.48L7.892,27.915C7.892,-7.896 36.664,-31.593 76.994,-31.593C105.758,-31.593 130.296,-22.566 150.321,-6.488L127.755,26.233C110.269,14.106 93.066,6.773 76.423,6.773C59.792,6.773 51.045,14.384 51.045,23.972L51.045,24.53C51.045,37.51 59.502,41.74 93.632,50.485C133.675,60.915 156.233,75.299 156.233,109.711L156.233,110.269C156.233,149.474 126.344,171.472 83.764,171.472C53.863,171.472 23.689,161.037 0,139.879" style="fill-rule:nonzero;"/>
            </g>
            <g transform="matrix(0.442782,0,0,0.442782,87.7124,109.561)">
                <path d="M0,1.125L0,0.556C0,-42.591 32.997,-78.123 79.245,-78.123C107.74,-78.123 125.504,-68.539 139.615,-52.751L113.38,-24.547C103.793,-34.694 94.21,-41.188 78.973,-41.188C57.529,-41.188 42.304,-22.284 42.304,-0.014L42.304,0.556C42.304,23.685 57.251,42.299 80.65,42.299C95.048,42.299 104.923,36.088 115.353,26.217L140.453,51.611C125.788,67.685 108.868,79.248 78.684,79.248C33.279,79.248 0,44.264 0,1.125" style="fill-rule:nonzero;"/>
            </g>
            <g transform="matrix(0.442782,0,0,0.442782,153.619,109.561)">
                <path d="M0,1.125L0,0.556C0,-42.873 34.973,-78.123 82.074,-78.123C128.889,-78.123 163.571,-43.442 163.571,-0.014L163.571,0.556C163.571,43.985 128.606,79.248 81.506,79.248C34.687,79.248 0,44.563 0,1.125M121.27,1.125L121.27,0.556C121.27,-21.725 105.202,-41.188 81.506,-41.188C56.974,-41.188 42.311,-22.284 42.311,-0.014L42.311,0.556C42.311,22.827 58.378,42.299 82.074,42.299C106.6,42.299 121.27,23.401 121.27,1.125" style="fill-rule:nonzero;"/>
            </g>
            <g transform="matrix(0.442782,0,0,0.442782,233.454,101.069)">
                <path d="M0,41.732L0,-56.126L42.867,-56.126L42.867,28.198C42.867,48.501 52.45,58.931 68.819,58.931C85.168,58.931 95.609,48.501 95.609,28.198L95.609,-56.126L138.469,-56.126L138.469,95.034L95.609,95.034L95.609,73.602C85.732,86.296 73.045,97.858 51.323,97.858C18.896,97.858 0,76.422 0,41.732" style="fill-rule:nonzero;"/>
            </g>
            <g transform="matrix(0.442782,0,0,0.442782,305.796,79.2115)">
                <path d="M0,101.528L0,-45.408L42.86,-45.408L42.86,-6.772L78.409,-6.772L78.409,29.894L42.86,29.894L42.86,94.481C42.86,104.36 47.102,109.147 56.681,109.147C64.583,109.147 71.636,107.165 77.83,103.782L77.83,138.197C68.813,143.55 58.378,146.936 43.988,146.936C17.77,146.936 0,136.499 0,101.528" style="fill-rule:nonzero;"/>
            </g>
        </g>
    </g>
</svg>
