<?xml version="1.0" encoding="UTF-8" standalone="no"?>
<!DOCTYPE svg PUBLIC "-//W3C//DTD SVG 1.1//EN" "http://www.w3.org/Graphics/SVG/1.1/DTD/svg11.dtd">
<svg width="100%" height="100%" viewBox="0 0 789 659" version="1.1" xmlns="http://www.w3.org/2000/svg" xmlns:xlink="http://www.w3.org/1999/xlink" xml:space="preserve" xmlns:serif="http://www.serif.com/" style="fill-rule:evenodd;clip-rule:evenodd;stroke-linejoin:round;stroke-miterlimit:2;">
    <g id="Layer-1" serif:id="Layer 1">
        <g>
            <text x="189.718px" y="115.185px" style="font-family:'NunitoSans-ExtraLight', 'Nunito Sans';font-weight:200;font-size:135.114px;">N</text>
            <text x="288.622px" y="115.185px" style="font-family:'NunitoSans-ExtraLight', 'Nunito Sans';font-weight:200;font-size:135.114px;">a</text>
            <text x="359.017px" y="115.185px" style="font-family:'NunitoSans-ExtraLight', 'Nunito Sans';font-weight:200;font-size:135.114px;">t</text>
            <text x="401.443px" y="115.185px" style="font-family:'NunitoSans-ExtraLight', 'Nunito Sans';font-weight:200;font-size:135.114px;">io<tspan x="502.598px " y="115.185px ">n</tspan></text>
            <text x="577.226px" y="115.185px" style="font-family:'NunitoSans-ExtraLight', 'Nunito Sans';font-weight:200;font-size:135.114px;">a<tspan x="647.621px " y="115.185px ">l</tspan></text>
            <text x="17.681px" y="372.04px" style="font-family:'NunitoSans-ExtraLight', 'Nunito Sans';font-weight:200;font-size:84.845px;">R</text>
            <text x="75.121px" y="372.04px" style="font-family:'NunitoSans-ExtraLight', 'Nunito Sans';font-weight:200;font-size:84.845px;">i</text>
            <text x="93.108px" y="372.04px" style="font-family:'NunitoSans-ExtraLight', 'Nunito Sans';font-weight:200;font-size:84.845px;">ﬂ</text>
            <text x="136.718px" y="372.04px" style="font-family:'NunitoSans-ExtraLight', 'Nunito Sans';font-weight:200;font-size:84.845px;">e</text>
            <text x="202.134px" y="372.04px" style="font-family:'NunitoSans-ExtraLight', 'Nunito Sans';font-weight:200;font-size:84.845px;">C</text>
            <text x="259.574px" y="372.04px" style="font-family:'NunitoSans-ExtraLight', 'Nunito Sans';font-weight:200;font-size:84.845px;">h</text>
            <text x="306.493px" y="372.04px" style="font-family:'NunitoSans-ExtraLight', 'Nunito Sans';font-weight:200;font-size:84.845px;">a</text>
            <text x="350.697px" y="372.04px" style="font-family:'NunitoSans-ExtraLight', 'Nunito Sans';font-weight:200;font-size:84.845px;">m<tspan x="421.694px 469.782px 487.665px 533.208px 580.024px 620.222px 667.037px 684.921px 733.009px " y="372.04px 372.04px 372.04px 372.04px 372.04px 372.04px 372.04px 372.04px 372.04px ">pionships</tspan></text>
            <text x="0px" y="629.344px" style="font-family:'NunitoSans-ExtraLight', 'Nunito Sans';font-weight:200;font-size:328.746px;">2023</text>
        </g>
        <g transform="matrix(1,0,0,1,25.6523,118.112)">
            <path d="M0,139.879L25.661,109.141C43.434,123.811 62.049,133.119 84.607,133.119C102.373,133.119 113.091,126.066 113.091,114.498L113.091,113.929C113.091,102.941 106.32,97.3 73.322,88.843C33.559,78.689 7.892,67.681 7.892,28.48L7.892,27.915C7.892,-7.896 36.664,-31.593 76.994,-31.593C105.758,-31.593 130.296,-22.566 150.321,-6.488L127.755,26.233C110.269,14.106 93.066,6.773 76.423,6.773C59.792,6.773 51.045,14.384 51.045,23.972L51.045,24.53C51.045,37.51 59.502,41.74 93.632,50.485C133.675,60.915 156.233,75.299 156.233,109.711L156.233,110.269C156.233,149.474 126.344,171.472 83.764,171.472C53.863,171.472 23.689,161.037 0,139.879" style="fill-rule:nonzero;"/>
        </g>
        <g transform="matrix(1,0,0,1,198.094,210.906)">
            <path d="M0,1.125L0,0.556C0,-42.591 32.997,-78.123 79.245,-78.123C107.74,-78.123 125.504,-68.539 139.615,-52.751L113.38,-24.547C103.793,-34.694 94.21,-41.188 78.973,-41.188C57.529,-41.188 42.304,-22.284 42.304,-0.014L42.304,0.556C42.304,23.685 57.251,42.299 80.65,42.299C95.048,42.299 104.923,36.088 115.353,26.217L140.453,51.611C125.788,67.685 108.868,79.248 78.684,79.248C33.279,79.248 0,44.264 0,1.125" style="fill-rule:nonzero;"/>
        </g>
        <g transform="matrix(1,0,0,1,346.941,210.906)">
            <path d="M0,1.125L0,0.556C0,-42.873 34.973,-78.123 82.074,-78.123C128.889,-78.123 163.571,-43.442 163.571,-0.014L163.571,0.556C163.571,43.985 128.606,79.248 81.506,79.248C34.687,79.248 0,44.563 0,1.125M121.27,1.125L121.27,0.556C121.27,-21.725 105.202,-41.188 81.506,-41.188C56.974,-41.188 42.311,-22.284 42.311,-0.014L42.311,0.556C42.311,22.827 58.378,42.299 82.074,42.299C106.6,42.299 121.27,23.401 121.27,1.125" style="fill-rule:nonzero;"/>
        </g>
        <g transform="matrix(1,0,0,1,527.242,191.726)">
            <path d="M0,41.732L0,-56.126L42.867,-56.126L42.867,28.198C42.867,48.501 52.45,58.931 68.819,58.931C85.168,58.931 95.609,48.501 95.609,28.198L95.609,-56.126L138.469,-56.126L138.469,95.034L95.609,95.034L95.609,73.602C85.732,86.296 73.045,97.858 51.323,97.858C18.896,97.858 0,76.422 0,41.732" style="fill-rule:nonzero;"/>
        </g>
        <g transform="matrix(1,0,0,1,690.623,142.362)">
            <path d="M0,101.528L0,-45.408L42.86,-45.408L42.86,-6.772L78.409,-6.772L78.409,29.894L42.86,29.894L42.86,94.481C42.86,104.36 47.102,109.147 56.681,109.147C64.583,109.147 71.636,107.165 77.83,103.782L77.83,138.197C68.813,143.55 58.378,146.936 43.988,146.936C17.77,146.936 0,136.499 0,101.528" style="fill-rule:nonzero;"/>
        </g>
    </g>
</svg>
